<?xml version="1.0" encoding="UTF-8"?>
<svg version="1.1" viewBox="0 0 1600 1600" width="1280" height="1280" xmlns="http://www.w3.org/2000/svg">
<path transform="translate(0)" d="m0 0h1600v1600h-1600v-1600z" fill="#FEFEFE"/>
<path transform="translate(1064 293)" d="m0 0c2.84 2.45 5.74 4.8 8.67 7.14 4.45 3.61 8.5 7.49 12.5 11.6 1.67 1.83 1.67 1.83 3.78 2.75v2h2v2c0.553 0.217 1.11 0.433 1.68 0.656 3.08 1.78 5.19 4.21 7.51 6.84 0.483 0.539 0.967 1.08 1.46 1.63 0.987 1.1 1.97 2.2 2.95 3.31 1.23 1.37 2.48 2.73 3.73 4.08 5.82 6.31 11.1 13 16.3 19.8 1.19 1.53 2.4 3.04 3.62 4.55 27.6 34.6 48.8 74.6 63.7 116 0.442 1.21 0.442 1.21 0.893 2.44 11.4 31.5 18.1 65.3 21.1 98.6 0.0943 0.984 0.189 1.97 0.286 2.98 0.981 11.6 0.958 23.3 0.964 35 0.00101 1.66 0.00101 1.66 0.00204 3.36-0.0174 18.1-0.701 35.8-3.25 53.7-0.177 1.25-0.354 2.5-0.536 3.79-7.44 51-23 98.9-48.9 143-2.49 4.34-4.86 8.75-7.25 13.2-3.54 6.5-7.27 12.8-11.3 19.1-4.79 7.55-9.19 15.3-13.6 23.1-3.45 6.05-7.03 12-10.8 17.8-2.46 3.85-4.8 7.77-7.14 11.7-1.04 1.73-2.07 3.47-3.11 5.2-0.545 0.912-1.09 1.82-1.65 2.76-11.1 18.6-22.4 37.2-33.9 55.6-5.78 9.24-11.5 18.5-17.3 27.8-1.6 2.58-3.2 5.16-4.8 7.74-5.66 9.13-11.3 18.3-16.9 27.5-6.78 11.2-13.7 22.2-20.8 33.3-3.84 6-7.6 12.1-11.3 18.1-7.92 12.8-15.9 25.6-24.1 38.2-5.78 8.89-11.4 17.9-17 26.9-4.72 7.57-9.49 15.1-14.3 22.7-1.46 2.3-2.91 4.6-4.36 6.91-3.02 4.79-6.05 9.59-9.08 14.4-0.856 1.35-0.856 1.35-1.73 2.73-11.6 18.4-11.6 18.4-17.2 26.6-4.97 7.36-9.63 14.9-14.3 22.4-4.64 7.45-9.38 14.8-14.2 22.2-3.71 5.68-7.33 11.4-10.9 17.2-3.4 5.48-6.9 10.9-10.4 16.3-3.46 5.33-6.86 10.7-10.2 16.1-5.15 8.18-10.4 16.3-15.6 24.4-1.39 2.14-2.77 4.27-4.14 6.41-3.92 6.08-7.84 12.2-11.9 18.1-6.29 9.34-12.2 18.9-18.1 28.5-1.05 1.7-2.15 3.37-3.26 5.03-2.12 0-2.12 0-5-1-5.09-5.54-8.9-12.4-12.9-18.8-1.25-1.97-2.49-3.94-3.74-5.91-0.59-0.932-1.18-1.86-1.79-2.83-2.44-3.83-4.96-7.59-7.49-11.4-7.79-11.7-15.3-23.5-22.8-35.4-2.97-4.71-6-9.36-9.12-14-5.06-7.49-9.81-15.2-14.6-22.8-3.71-5.96-7.46-11.9-11.3-17.8-4.26-6.55-8.46-13.1-12.6-19.8-5.02-7.96-10.1-15.9-15.1-23.8-2.35-3.69-4.7-7.38-7.04-11.1-6.01-9.47-12.1-18.9-18.2-28.3-4.86-7.42-9.6-14.9-14.2-22.5-7.61-12.6-15.6-24.9-23.6-37.2-7.49-11.4-14.7-23-21.8-34.6-3.48-5.7-7.06-11.3-10.7-17-7.39-11.6-14.7-23.3-21.8-35-9.53-15.7-19.3-31.2-29.1-46.7-4.2-6.62-8.34-13.3-12.3-20-4.01-6.74-8.08-13.4-12.2-20.1-0.559-0.92-0.559-0.92-1.13-1.86-4.42-7.28-8.86-14.6-13.3-21.8-5.24-8.56-10.4-17.2-15.6-25.8-1.68-2.81-3.37-5.61-5.05-8.42-9.57-15.9-19.1-31.9-28.5-47.8-1.71-2.88-3.42-5.76-5.13-8.64-5.83-9.83-11.5-19.8-16.9-29.8-0.477-0.874-0.955-1.75-1.45-2.65-23.5-43.2-36.1-89.8-42.6-138-0.165-1.22-0.33-2.44-0.5-3.7-4.18-32-3.62-64.3 0.5-96.3 0.161-1.31 0.322-2.61 0.488-3.96 8.58-68.8 35.3-134 75.8-190 0.407-0.572 0.815-1.14 1.23-1.73 2.41-3.36 4.92-6.61 7.52-9.83 1.14-1.5 1.14-1.5 2.3-3.02 6.59-8.62 13.7-16.5 21.2-24.4 1.82-1.94 3.57-3.94 5.3-5.96 5.54-6.41 11.6-12.3 18-17.8 2.47-2.15 4.86-4.38 7.27-6.61 5.84-5.33 12-10.2 18.3-15 2.28-1.78 4.51-3.62 6.74-5.45 4.38-3.51 8.94-6.63 13.6-9.7 2.22-1.45 4.41-2.92 6.59-4.42 9.76-6.7 19.9-12.6 30.2-18.4 2.02-1.13 4.02-2.27 6.02-3.42 18.9-10.6 39.8-19.1 60.4-25.9l2.84-0.947c32.6-10.7 66-17.5 100-20.1 1.17-0.0868 1.17-0.0868 2.36-0.175 88.8-6.29 177 17.7 293 94.7z"/>
<path transform="translate(929 486)" d="m0 0c4.54 4.68 8.58 9.76 12.6 14.9 0.817 1.01 1.63 2.02 2.48 3.07 15.2 19 25.5 40.4 31.5 63.9 0.2 0.762 0.399 1.52 0.605 2.31 12.2 47.5 4.46 97.4-19.8 140-9.32 15.6-21.3 31.8-35.8 43h-2c-0.33 0.99-0.66 1.98-1 3-1.38 1.32-1.38 1.32-3.14 2.64-0.977 0.736-0.977 0.736-1.97 1.49-1.06 0.774-1.06 0.774-2.14 1.56-0.729 0.537-1.46 1.07-2.21 1.63-39.5 28.8-89.5 40.4-138 33.5-3.25-0.523-6.47-1.13-9.69-1.81-0.791-0.166-1.58-0.333-2.4-0.504-31.7-6.95-58.1-22.9-82.6-43.5-0.919-0.763-1.84-1.53-2.79-2.31-3.99-3.38-3.99-3.38-5.21-4.69v-2h-2v-2h-2c-2.58-2.43-4.75-5.26-7-8-0.746-0.887-1.49-1.77-2.26-2.69-25.6-31.7-39-72.2-39-113-0.00101-1.06-0.00101-1.06-0.00204-2.14 0.0177-11.7 0.722-23 3.25-34.5 0.172-0.786 0.343-1.57 0.52-2.38 4.15-18.4 11.2-35 20.3-51.4 0.822-1.49 1.63-2.99 2.43-4.49 2.78-5.15 5.86-9.87 9.41-14.5 0.521-0.689 1.04-1.38 1.58-2.09 4.91-6.4 10.2-12.3 15.8-18.1 0.474-0.5 0.948-1 1.44-1.51 10.9-11.5 22.9-20.6 36.7-28.4 1.78-1.01 3.54-2.05 5.31-3.08 71.1-40.8 160-23.2 217 32.1z" fill="#FEFEFE"/>
</svg>
